PathFileType	4	(X/Y/Z)	Patient4_TMGait_0pt3_03_left_30.trc.trc
DataRate	CameraRate	NumFrames	NumMarkers	Units	OrigDataRate	OrigDataStartFrame	OrigNumFrames
53.231939163498	53.231939163498	6	33	mm	53.231939163498	1	       141
Frame#	Time	Sacral			L.Shoulder			Chest			R.Shoulder			Neck			R.ASIS			L.ASIS			R.Thigh.Superior			R.Thigh.Lateral			R.Thigh.Inferior			R.Patella			L.Thigh.Superior			L.Thigh.Lateral			L.Thigh.Inferior			L.Patella			L.Shank.Superior			L.Shank.Lateral			L.Shank.Inferior			R.Shank.Superior			R.Shank.Lateral			R.Shank.Inferior			R.Heel			R.Midfoot.Superior			R.Midfoot.Lateral			R.Toe			L.Heel			L.Midfoot.Lateral			L.Midfoot.Superior			L.Toe			L.Elbow			L.Wrist			R.Elbow			R.Wrist			
		X1	Y1	Z1	X2	Y2	Z2	X3	Y3	Z3	X4	Y4	Z4	X5	Y5	Z5	X6	Y6	Z6	X7	Y7	Z7	X8	Y8	Z8	X9	Y9	Z9	X10	Y10	Z10	X11	Y11	Z11	X12	Y12	Z12	X13	Y13	Z13	X14	Y14	Z14	X15	Y15	Z15	X16	Y16	Z16	X17	Y17	Z17	X18	Y18	Z18	X19	Y19	Z19	X20	Y20	Z20	X21	Y21	Z21	X22	Y22	Z22	X23	Y23	Z23	X24	Y24	Z24	X25	Y25	Z25	X26	Y26	Z26	X27	Y27	Z27	X28	Y28	Z28	X29	Y29	Z29	X30	Y30	Z30	X31	Y31	Z31	X32	Y32	Z32	X33	Y33	Z33	

1	53.160000000000	679.370129035856	1004.232743811993	569.939235691291	878.648841888851	1427.686595807675	396.616759430953	966.211292280043	1356.682616233502	564.822661430056	873.317378609458	1429.841353842219	733.201185903696	845.999865655743	1490.115152118361	552.650381786394	906.879418800892	933.236655370565	694.153581463004	898.074481672551	954.416878028318	420.565369507324	950.563352452182	734.371166683255	653.638541472876	869.796269218067	621.355902516675	705.800101832153	948.062924163050	572.393161413993	624.527022053534	949.181010366436	477.819752669357	628.965572904585	948.065859825208	741.602007922484	443.970827935090	870.221108875931	625.274549956924	369.810691246707	956.561373239012	542.390911812860	432.629580076738	949.875885693784	456.330995564096	427.126004659833	879.846196040469	401.062712041296	416.473806188663	741.526042016638	364.387644007389	357.187410538755	720.079353192971	235.547756097835	410.639291624427	903.680573224943	393.255607680923	631.701521232450	816.510718480810	298.866549144241	687.255724755541	845.706037980424	201.249469121549	622.313384698838	691.403357012710	47.412201763935	584.780499535631	862.449315511561	97.305272226966	631.127767748652	770.500260684846	39.342450384619	663.693949414709	978.549040181631	39.693936731889	666.935610217071	524.642165708195	176.019573943413	435.093602045052	586.901563233097	128.340179743544	359.879125272358	690.786337085176	136.475031195632	387.912674075353	770.106738006480	29.900447610845	367.323240937291	900.748751631723	1073.595546138283	279.437470565500	1052.076421038777	858.741732808305	270.198040824154	822.615494900885	1079.778015174800	846.647496058006	879.794103381141	825.591014739972	872.717827211950	
2	53.178785714286	678.128348661470	1001.865764672376	574.199897871507	875.206708968597	1425.123860585955	397.725872581656	964.962994451231	1354.521994374146	564.894853115796	874.418072070156	1427.972545206812	734.386378819752	844.970900883871	1488.061448886414	553.975084953260	906.862635240439	931.398417925027	695.922254321187	895.416060782288	952.851755771640	422.279835215743	951.047640291990	732.745827165887	654.610149111533	870.939762329832	619.062261625583	706.442358550455	949.184421884406	570.794704849302	624.555636798186	950.231947652342	475.461358799418	628.608224428722	950.319391704831	743.793510446143	447.654342536728	877.828499407711	625.753795105163	372.547747910605	965.895520799652	545.447549605260	436.345278482509	961.174470909153	458.292224273711	429.790154711135	890.169489829141	402.537670894059	418.398053057804	750.480803694448	368.964206517913	360.315744862404	727.460131967461	239.777307855578	412.191773360456	903.427592043943	391.220131507520	631.451347481444	815.085067055174	298.062279885973	687.351697448615	842.159485359767	200.281865592919	622.137469410084	685.734710533875	47.847190350104	584.826716577669	856.889877075918	97.344550310791	631.211673263206	764.757462404292	39.550410813420	663.761838791145	972.807042610036	39.534058010149	667.020372283114	531.406441604830	183.133132798956	438.177439932064	592.050166162576	135.841360325858	361.363031229622	696.390850961069	141.469823174553	388.340190316127	773.067733382167	32.315005153451	364.466034072171	887.595000751074	1069.887690154960	283.246040943963	1021.178558365445	846.517658714504	274.884337705225	834.558171018745	1077.111004654646	849.345228617722	904.219049838735	826.873324963258	874.662863725615	
3	53.197571428571	676.856860364375	999.510552385022	578.469251974584	871.678458766656	1422.524295136548	398.789673414887	963.691780417828	1352.358411893873	564.888490049046	875.560754378357	1426.136296549668	735.510621879622	843.926979923113	1486.002257278008	555.222025480728	906.823270100920	929.523525726742	697.642998732501	892.624488181959	951.275805417752	423.989561137054	951.500373845301	731.099238581910	655.530682547889	872.068361687383	616.764569519583	707.045604574017	950.260911778699	569.174636160497	624.526605847629	951.231161752790	473.093630916007	628.166747760077	952.453908688785	746.055278470500	451.178968684632	885.234622919511	626.364958470959	375.153121275370	975.079087641966	548.655785883414	439.849881384483	972.395206831600	460.460713371639	432.255383135397	900.565883619079	404.108542471577	420.133357917941	759.512023979129	373.174419031142	363.341277534572	735.374218304292	243.509375363214	413.592734509134	903.111175022385	389.174789021550	631.136428105751	813.608946319810	297.267290530885	687.422473349574	838.526187256131	199.323521259702	621.945202611230	679.934243156460	48.324010661405	584.888143473393	851.196036431051	97.369945223489	631.270900202838	758.897754222126	39.782703608205	663.848053153420	966.941090904816	39.367477685511	667.104939919901	538.835393019647	188.969917018785	441.212099688913	597.970740512507	142.369544283481	362.727735632816	702.799562484873	145.913146262809	388.582542622019	777.302382213407	34.636407216563	361.267779652328	873.886917971311	1066.264684998662	287.017541953956	989.629283495593	834.690779958348	279.767183239578	846.806668187022	1074.576883819640	851.989466533943	929.547398714030	828.736080652287	876.335976113638	
4	53.216357142857	675.576214962900	997.283849838265	582.619992381350	868.125102303241	1419.988968912820	399.753271019039	962.428634488089	1350.284593956423	564.752517807980	876.752381523481	1424.427515980073	736.502774177358	842.900725706050	1484.026459958099	556.323524562644	906.739063111584	927.671139804271	699.216477189221	889.708293247132	949.761745371673	425.624537003248	951.849912996330	729.482271293563	656.329548991379	873.092649671658	614.552563233143	707.568250816027	951.173623694841	567.582449637957	624.408774587078	952.050677659197	470.801835524346	627.621106482211	954.322752654677	748.369644730114	454.354475962776	892.086062889885	627.170147723170	377.474049686748	983.710554233937	551.998037060913	442.926992881952	983.115258806886	462.897119570266	434.346574325918	910.744324652857	405.797813424165	421.530457890850	768.439257232389	376.675162950249	366.078895056841	743.946842847825	246.379321337309	414.701974751744	902.645191649821	387.195390138112	630.741969468570	812.047617736002	296.518943957479	687.457425832367	834.835733231669	198.416528638712	621.738358720511	674.095964544783	48.844114811501	584.973050597933	845.455696362563	97.372193711913	631.291867478748	753.020585212574	40.040968042081	663.957056733865	961.048925993306	39.197040704884	667.187419042818	547.205018259824	192.672726249521	444.019287272668	605.054524103207	147.203240540499	363.832713483703	710.372132085860	149.387323851970	388.526602788451	783.489150812986	36.767312295608	357.691218383539	859.760601744191	1062.939575222636	290.629339490444	958.052537642258	823.877073791010	284.802920824521	859.188220303419	1072.361626297309	854.462132842397	955.502164440842	831.542545065352	877.500273116004	
5	53.235142857143	674.297160522672	995.306210587927	586.550851527737	864.591814224890	1417.628893435199	400.577369605412	961.201251120578	1348.393173812538	564.440793809220	878.013480343672	1422.936582695166	737.304919018047	841.922352102618	1482.225064641953	557.235265840343	906.593285061009	925.906999515463	700.553803934248	886.690393030685	948.402142338507	427.108294703452	952.005576499644	727.940084437299	656.939143613547	873.890989123950	612.510232609605	707.979629123639	951.771228474024	566.063017948556	624.175709191578	952.524682598911	468.666101132904	626.960313100563	955.801426126214	750.737970143373	457.029650153583	898.094295826551	628.223650147901	379.385647280737	991.454860951043	555.462398021720	445.399577146185	992.980389850691	465.661665884149	435.922707755479	920.474736747209	407.633854067188	422.469787320147	777.164095573183	379.173005484860	368.347538772595	753.342039509869	248.098508173899	415.390216393240	901.906454640224	385.353622963643	630.262113529363	810.327297834176	295.848491559540	687.452726039620	831.078783264414	197.596605161663	621.520771719843	668.279067629552	49.398769405660	585.089650742593	839.721268930454	97.342905130684	631.264542547202	747.188324850399	40.319455915292	664.092412789824	955.192562923641	39.027066811867	667.266358433867	556.841245932166	193.561825309741	446.396081987400	613.730204818452	149.749287794012	364.533787826682	719.489800855875	151.547763648892	388.077129028371	792.256118366321	38.598770841103	353.756819806583	845.327348010248	1060.128439158398	293.991138252387	926.940450930673	814.591628921570	289.963904565019	871.602420459322	1070.640005673737	856.665717219595	981.893931365267	835.670131050010	877.939624568495	
6	53.253928571429	673.023198641523	993.695398096279	590.189123473907	861.111059524374	1415.560695759197	401.240250095745	960.034318595784	1346.772354878694	563.916328855376	879.375418128652	1421.743983829770	737.875865451125	841.019823490064	1480.687218318963	557.939391986519	906.377402490747	924.302736673372	701.582450538515	883.601601893960	947.298892998302	428.365549926974	951.864260551722	726.511884309387	657.300216684059	874.320913459110	610.714169623042	708.262794060547	951.881524464371	564.656422773704	623.809307923357	952.462595688291	466.758642600117	626.186936954322	956.794672286639	753.174347790223	459.104201271426	903.050238296664	629.563390341435	380.800320414367	998.057236811877	559.034534420730	447.146805401925	1001.717155813399	468.801866152139	436.892318397232	929.588977186197	409.646691993043	422.875524193623	785.669410791169	380.454484205500	369.984703817730	763.732472089922	248.492854124815	415.554131884607	900.746020809771	383.715297185924	629.703780698171	808.342129179213	295.280787044576	687.412134375448	827.212873382823	196.892346892956	621.299028883852	662.511850446531	49.969510413888	585.244700242092	834.014410471406	97.275662364559	631.183552231824	741.429578136565	40.605768546471	664.255604297074	949.401594521198	38.862892375716	667.340704002945	568.080893455974	191.219754805960	448.133160454473	624.416547726783	149.616673232546	364.699202477302	730.506467221105	152.170625637860	387.171016012128	804.104785025239	40.040680244474	349.555342774026	830.693714542633	1058.035384675752	297.050319287543	896.663810620273	807.212318414039	295.228898108223	884.010233272819	1069.563062517105	858.526881453312	1008.584792238122	841.473187268572	877.477081295956	
